<?xml version="1.0" encoding="UTF-8"?>
<svg width="337px" height="293px" viewBox="0 0 337 293" version="1.1" xmlns="http://www.w3.org/2000/svg" xmlns:xlink="http://www.w3.org/1999/xlink">
    <!-- Generator: Sketch 51.3 (57544) - http://www.bohemiancoding.com/sketch -->
    <title>Group 2</title>
    <desc>Created with Sketch.</desc>
    <defs></defs>
    <g id="Logo" stroke="none" stroke-width="1" fill="none" fill-rule="evenodd">
        <g id="moneyhub_white" transform="translate(-1681.000000, 0.000000)" fill="#FFFFFF">
            <g id="Group-23">
                <g id="Group-2" transform="translate(1681.000000, 0.000000)">
                    <path d="M302.382876,79.814998 L184.98008,146.205411 L302.74384,211.996186 L331.992742,162.372268 C338.035692,152.12002 337.9993,139.510105 331.901271,129.288033 L302.382876,79.814998 Z" id="Fill-7" fill-opacity="0.6"></path>
                    <path d="M160.217066,132.37354 L159.855118,0.192351333 L101.087822,0.343234211 C88.947826,0.373410786 77.7490907,6.70659789 71.7071241,16.9588461 L42.4572392,66.5827644 L160.217066,132.37354 Z" id="Fill-9"></path>
                    <path d="M235.209644,0 L235.113255,0 L176.340058,0.150882878 L176.701022,132.332071 L294.104802,65.9416581 L264.585423,16.4637555 C258.503131,6.27186052 247.309314,0 235.209644,0" id="Fill-11" fill-opacity="0.8"></path>
                    <path d="M34.2545048,80.5026346 L5.00068566,130.13142 C-1.03636313,140.378801 -1.00587298,152.988716 5.0921561,163.210787 L72.4114465,276.036136 C78.5045578,286.253341 89.738701,292.530068 101.878697,292.499892 L235.902557,292.158215 C248.042552,292.127065 259.246206,285.794851 265.288172,275.542603 L294.538057,225.913818 L34.2545048,80.5026346 Z" id="Fill-13"></path>
                </g>
            </g>
        </g>
    </g>
</svg>